<?xml version="1.0" encoding="utf-8"?>
<!-- Generator: Adobe Illustrator 15.1.0, SVG Export Plug-In . SVG Version: 6.00 Build 0)  -->
<!DOCTYPE svg PUBLIC "-//W3C//DTD SVG 1.1//EN" "http://www.w3.org/Graphics/SVG/1.1/DTD/svg11.dtd">
<svg version="1.1" id="Logo" xmlns="http://www.w3.org/2000/svg" xmlns:xlink="http://www.w3.org/1999/xlink" x="0px" y="0px"
	 width="792px" height="612px" viewBox="0 0 792 612" enable-background="new 0 0 792 612" xml:space="preserve">
<path opacity="0.2" d="M401.218,354.624c61.248,0,114.126,6.713,138.852,14.034V237.979H262.366v130.679
	C287.093,361.337,339.97,354.624,401.218,354.624z"/>
<g>
	<path fill-rule="evenodd" clip-rule="evenodd" fill="#BABABA" d="M485.97,312.841c0-0.309-0.25-0.561-0.559-0.561
		s-0.559,0.252-0.559,0.561c0,0.277,0.207,0.498,0.473,0.541c0.191-0.154,0.402-0.311,0.629-0.469
		C485.958,312.888,485.97,312.866,485.97,312.841L485.97,312.841z M540.069,361.378v7.066c-33.699-8.467-83.404-13.82-138.852-13.82
		s-105.153,5.354-138.852,13.82v-7.063c6.283-1.578,13.12-3.049,20.449-4.396c-2.604-7.645-6.081-15.537-9.137-19.502
		c-0.213,0.371-0.447,0.863-0.559,1.346c-0.125,0.547-0.09,1.084,0.045,1.545c0.133,0.461,0.363,0.844,0.221,0.9
		c-0.143,0.055-0.659-0.219-1.184-0.523c-0.523-0.305-1.055-0.639-1.519-1.086c-0.463-0.447-0.858-1.006-1.097-1.229
		c-0.239-0.223-0.322-0.105-0.486,0.434c-0.164,0.537-0.41,1.496-0.622,2.113c-0.213,0.617-0.394,0.895-0.608,1.176
		c-0.215,0.283-0.466,0.568-0.591,0.615c-0.124,0.047-0.124-0.145-0.231-0.596c-0.106-0.451-0.321-1.16-0.498-1.762
		c-0.176-0.604-0.314-1.098-0.277-1.564s0.251-0.904,0.217-1.027c-0.035-0.125-0.317,0.064-0.652,0.205
		c-0.334,0.139-0.723,0.225-1.041,0.381c-0.318,0.154-0.568,0.377-0.693,0.326c-0.124-0.049-0.123-0.371,0.016-0.961
		c0.139-0.594,0.416-1.455,0.979-2.248c0.563-0.791,1.412-1.514,2.232-1.924c0.82-0.412,1.615-0.512,2.113-0.582
		c0.501-0.072,0.707-0.113,0.901-0.691s0.378-1.689,1.028-2.627c0.651-0.939,1.77-1.705,2.848-2.113
		c1.078-0.412,2.115-0.467,2.549-0.449s0.264,0.107,0.015,0.402c-0.249,0.293-0.575,0.791-0.894,1.146
		c-0.316,0.354-0.625,0.566-0.633,0.652c-0.006,0.086,0.289,0.045,0.821,0.09c0.532,0.047,1.303,0.178,1.949,0.395
		c0.647,0.219,1.171,0.521,1.585,0.828c0.412,0.309,0.713,0.619,0.686,0.783c-0.028,0.162-0.385,0.178-0.783,0.336
		s-0.838,0.459-1.275,0.717c-0.438,0.256-0.875,0.467-1.283,0.619c-0.407,0.152-0.785,0.246-0.772,0.363s0.417,0.258,0.871,0.539
		s0.958,0.703,1.316,1.195c0.358,0.494,0.57,1.059,0.694,1.482c0.124,0.422,0.161,0.701,0.018,0.736
		c-0.145,0.035-0.468-0.174-0.906-0.289c-0.438-0.117-0.988-0.141-1.498-0.16c-0.511-0.02-0.979-0.033-1.361-0.102
		c-0.216-0.041-0.404-0.098-0.57-0.135c2.824,3.15,7.363,11.701,10.697,19.77l0.805-0.141v-2.301
		c0.148-5.637,0.213-11.141,0.336-16.475c-1.849-10.07-4.631-20.287-7.649-25.828c-0.358,0.445-0.774,1.047-1.022,1.664
		c-0.281,0.697-0.348,1.416-0.268,2.053c0.08,0.639,0.305,1.197,0.104,1.238c-0.2,0.043-0.827-0.428-1.457-0.941
		c-0.629-0.512-1.263-1.066-1.782-1.756c-0.518-0.689-0.923-1.514-1.192-1.857c-0.271-0.344-0.405-0.207-0.735,0.471
		c-0.331,0.676-0.857,1.895-1.27,2.668c-0.41,0.771-0.707,1.102-1.053,1.43c-0.344,0.326-0.734,0.652-0.91,0.688
		c-0.175,0.037-0.134-0.219-0.181-0.838s-0.182-1.604-0.288-2.438c-0.107-0.834-0.186-1.518-0.039-2.127
		c0.148-0.609,0.522-1.145,0.503-1.316c-0.02-0.17-0.433,0.021-0.905,0.135s-1.004,0.146-1.458,0.285
		c-0.454,0.137-0.833,0.379-0.987,0.287s-0.084-0.518,0.223-1.271c0.31-0.754,0.857-1.836,1.769-2.768
		c0.911-0.93,2.187-1.707,3.36-2.078s2.244-0.336,2.922-0.324c0.676,0.011,0.958-0.002,1.336-0.726
		c0.38-0.724,0.856-2.156,1.916-3.262c1.059-1.104,2.701-1.882,4.214-2.198s2.897-0.17,3.468-0.057
		c0.569,0.115,0.326,0.199-0.064,0.535s-0.929,0.926-1.424,1.33c-0.494,0.402-0.948,0.619-0.976,0.73
		c-0.026,0.113,0.372,0.121,1.067,0.293s1.688,0.508,2.498,0.932s1.44,0.937,1.922,1.43c0.482,0.494,0.814,0.969,0.743,1.18
		c-0.071,0.209-0.547,0.156-1.106,0.281c-0.561,0.126-1.205,0.432-1.84,0.678c-0.633,0.248-1.257,0.436-1.828,0.553
		c-0.572,0.115-1.092,0.16-1.1,0.318c-0.008,0.156,0.497,0.43,1.039,0.896c0.543,0.467,1.121,1.131,1.492,1.859
		s0.531,1.521,0.606,2.107c0.075,0.584,0.065,0.963-0.132,0.979c-0.197,0.018-0.582-0.328-1.138-0.574
		c-0.554-0.246-1.28-0.395-1.95-0.527c-0.672-0.131-1.289-0.248-1.78-0.42c-0.278-0.1-0.516-0.215-0.728-0.299
		c2.512,3.891,5.779,12.789,8.371,22.119c5.459-0.316,10.645-0.703,16.182-1.182l0.367-0.172c0,0-0.021-0.779,0.52-0.131l2.98-2.227
		l0.543-0.02l7.455-5.059c0,0,0.236-0.82,0.518-0.086l7.333,1.828c-0.79-2.336-1.222-4.838-1.222-7.441
		c0-10.379,6.813-19.164,16.209-22.133c-0.066,0.01-0.133,0.02-0.199,0.02c-0.685,0-1.24-0.557-1.24-1.241
		c0-0.687,0.556-1.241,1.24-1.241c0.688,0,1.242,0.555,1.242,1.241c0,0.501-0.298,0.93-0.725,1.125
		c1.5-0.45,3.063-0.749,4.674-0.888c-0.62-0.068-1.104-0.588-1.104-1.228c0-0.687,0.558-1.241,1.242-1.241
		c0.687,0,1.243,0.555,1.243,1.241c0,0.571-0.389,1.048-0.915,1.192c0.509-0.033,1.021-0.056,1.538-0.056
		c4.746,0,9.154,1.427,12.831,3.871c-0.319-0.224-0.532-0.597-0.532-1.017c0-0.688,0.557-1.241,1.242-1.241s1.242,0.554,1.242,1.241
		s-0.557,1.24-1.242,1.24c-0.246,0-0.473-0.072-0.665-0.196c2.753,1.841,5.087,4.253,6.837,7.065
		c-0.074-0.16-0.121-0.338-0.121-0.527c0-0.687,0.555-1.244,1.24-1.244s1.244,0.558,1.244,1.244c0,0.686-0.559,1.24-1.244,1.24
		c-0.393,0-0.738-0.186-0.965-0.471c1.607,2.654,2.689,5.658,3.123,8.869c0-0.008-0.002-0.016-0.002-0.023
		c0-0.688,0.557-1.242,1.241-1.242s1.241,0.555,1.241,1.242c0,0.686-0.557,1.242-1.241,1.242c-0.587,0-1.079-0.412-1.206-0.961
		c0.116,0.943,0.182,1.9,0.182,2.873c0,5.891-2.196,11.266-5.811,15.355c0.205-0.152,0.458-0.246,0.734-0.246
		c0.687,0,1.242,0.557,1.242,1.24c0,0.688-0.556,1.244-1.242,1.244c-0.686,0-1.24-0.557-1.24-1.244c0-0.227,0.066-0.439,0.174-0.625
		c-1.168,1.268-2.476,2.406-3.897,3.389c0.118-0.037,0.241-0.064,0.371-0.064c0.687,0,1.241,0.557,1.241,1.24
		c0,0.689-0.555,1.244-1.241,1.244c-0.685,0-1.241-0.555-1.241-1.244c0-0.305,0.115-0.582,0.301-0.799
		c-1.546,1-3.215,1.824-4.982,2.438l0.541,1.084l2.477-0.063l-0.032,2.85c0.479-0.055,0.96-0.109,1.437-0.162l23.616-20.373
		l14.31,9.984c2.697-18.479,6.566-51.256,1.646-60.225l0.751-1.016l-3.386-5.578c0,0-0.498-2.988,4.881-4.384
		c0,0,0.996-1.993,2.59-2.191l0.199-13.051l0.1-0.597l0.1-3.189l0.4-0.1l0.098,3.289l0.299,0.796l0.301,12.651
		c0,0,2.391,0.4,2.787,2.392c0,0,4.982,1.196,4.783,4.284l-3.389,5.479c0,0,0.1,1.894-1.295,2.789c0,0-2.471,26.016,2.094,62.857
		l1.531-2.404l0.039-1.289h-0.369v-0.588h0.295v-0.994h-0.148v-0.334h1.73l2.912-8.396l-0.295-2.43l1.143-0.701
		c0,0,1.52-9.189,1.797-13.297l0.629-10.578l-0.352-0.139l-0.066-1.739l0.486-1.323l0.625-0.208l0.07-3.132h0.418l0.277,3.132
		l0.904,0.349l0.211,1.321l-0.07,1.6l-0.279,0.349l0.627,10.439c0,0,1.393,12.389,1.809,13.084l1.115,0.834l-0.209,2.088l3.061,8.77
		h1.672v0.193h-0.221v1.217h0.373v0.404h-0.326v1.248l1.934,2.852l-0.221-25.111l0.477,0.158v-1.75c0,0,20.439,16.621,44.141,4.691
		l-0.08,1.193l0.557-0.16l-0.047,21.32l10.387,0.236c0,0,0.381-0.371,0.113-0.594c0,0-0.096-0.277,0.096-0.334l0.057-0.408
		c0,0-0.721-0.631,0.475-0.965c0,0,0.324-0.223,0.533-0.205c0,0-0.074-0.406,0.324-0.406c0,0,0.473,0.018,0.283,0.406
		c0,0,0.418,0.111,0.514,0.223c0,0,1.045,0.334,0.494,1.021l-0.039,0.408c0,0,0.207,0.223,0.02,0.408l-0.039,0.297l5.082-0.877
		l0.133-14.15l-0.363-0.141c-0.102-0.129-0.254-0.219-0.432-0.219c-0.033,0-0.061,0.014-0.092,0.018l-0.963-0.369
		c-0.1-0.156-0.266-0.268-0.463-0.268c-0.053,0-0.1,0.018-0.148,0.029l-0.82-0.314c-0.1-0.16-0.266-0.268-0.465-0.268
		c-0.053,0-0.102,0.016-0.15,0.029l-0.803-0.311c-0.1-0.154-0.264-0.262-0.461-0.262c-0.051,0-0.096,0.016-0.143,0.031l-0.699-0.271
		c-0.08-0.215-0.281-0.369-0.521-0.369c-0.094,0-0.178,0.029-0.256,0.07l-0.34-0.131c0,0-0.064-0.035-0.176-0.094
		c-0.018-0.295-0.254-0.527-0.551-0.527c-0.082,0-0.156,0.018-0.227,0.049c-0.15-0.102-0.311-0.215-0.477-0.34
		c-0.051-0.26-0.266-0.459-0.537-0.459c-0.008,0-0.012,0.004-0.018,0.004c-0.178-0.158-0.354-0.328-0.523-0.508
		c-0.018-0.242-0.189-0.432-0.416-0.492c-0.125-0.164-0.236-0.336-0.34-0.512c0.025-0.066,0.043-0.135,0.043-0.207
		c0-0.242-0.154-0.441-0.369-0.521c-0.059-0.184-0.096-0.373-0.119-0.564c0.133-0.104,0.225-0.256,0.225-0.439
		c0-0.168-0.078-0.314-0.197-0.416c0.029-0.16,0.07-0.32,0.133-0.482c0.262-0.045,0.469-0.266,0.469-0.543
		c0-0.088-0.027-0.172-0.064-0.246c0.109-0.164,0.24-0.33,0.385-0.494c0.229-0.047,0.404-0.227,0.439-0.459
		c0.152-0.146,0.322-0.295,0.506-0.443c0.031,0.006,0.057,0.018,0.088,0.018c0.281,0,0.506-0.213,0.543-0.486
		c0.17-0.119,0.35-0.236,0.539-0.354c0.045,0.01,0.09,0.025,0.139,0.025c0.248,0,0.451-0.164,0.523-0.389l0.787-0.229
		c0.092,0.063,0.195,0.109,0.314,0.109c0.234,0,0.434-0.145,0.518-0.35l0.869-0.252c0.088,0.055,0.184,0.094,0.293,0.094
		c0.225,0,0.412-0.135,0.502-0.324l0.461-0.133l0.662-0.262c-1.035-0.375-1.781-1.367-1.781-2.535c0-1.488,1.209-2.695,2.697-2.695
		c0.953,0,1.791,0.498,2.271,1.244l-0.047-7.003l-1.361-0.239l1.357-0.148l-0.035-5.545h6.045l0.26-2.34l0.25,2.34h5.748v5.693
		l1.525,0.306l-1.525,0.166v4.595l2.34-1.101l5.199,2.056c0.111-0.016,0.223-0.023,0.336-0.023c0.834,0,1.578,0.379,2.072,0.975
		l1.207,0.477c0.451-0.861,1.352-1.451,2.391-1.451c1.49,0,2.695,1.207,2.695,2.695c0,0.252-0.035,0.496-0.1,0.725l0.551,0.219
		c-0.109-0.293-0.17-0.611-0.17-0.943c0-1.488,1.205-2.695,2.695-2.695c1.488,0,2.693,1.207,2.693,2.695
		c0,1.059-0.609,1.973-1.496,2.414l1.479,0.584c0.098,0.164,0.27,0.279,0.475,0.279c0.055,0,0.105-0.016,0.154-0.031l0.66,0.262
		c0,0,0.041,0.012,0.113,0.037c0.072,0.225,0.275,0.387,0.523,0.387c0.102,0,0.193-0.035,0.277-0.084
		c0.232,0.1,0.498,0.221,0.775,0.361c0.078,0.219,0.279,0.377,0.523,0.377c0.039,0,0.074-0.014,0.111-0.021
		c0.248,0.152,0.5,0.322,0.736,0.506c0.059,0.217,0.234,0.375,0.463,0.402c0.172,0.168,0.33,0.348,0.471,0.537
		c0,0.012-0.008,0.02-0.008,0.031c0,0.227,0.137,0.422,0.332,0.51c0.098,0.207,0.172,0.422,0.215,0.648
		c-0.111,0.104-0.184,0.248-0.184,0.41c0,0.17,0.078,0.316,0.199,0.42c-0.025,0.168-0.066,0.34-0.125,0.518
		c-0.264,0.045-0.469,0.264-0.469,0.541c0,0.102,0.033,0.189,0.082,0.273c-0.096,0.156-0.207,0.316-0.334,0.479
		c-0.006,0-0.008-0.002-0.014-0.002c-0.309,0-0.559,0.25-0.559,0.557c0,0.033,0.012,0.061,0.016,0.09
		c-0.17,0.176-0.357,0.355-0.563,0.539c-0.26,0.006-0.467,0.191-0.523,0.436c-0.225,0.18-0.467,0.361-0.727,0.547
		c-0.008,0-0.014-0.006-0.021-0.006c-0.244,0-0.447,0.158-0.523,0.379c-0.189,0.127-0.377,0.252-0.584,0.383l-0.072,0.029
		c-0.078-0.041-0.164-0.072-0.26-0.072c-0.248,0-0.453,0.17-0.523,0.395l-0.746,0.313c-0.041-0.012-0.08-0.027-0.125-0.027
		c-0.201,0-0.371,0.113-0.469,0.271l-0.705,0.293c-0.057-0.02-0.117-0.037-0.18-0.037c-0.223,0-0.408,0.131-0.5,0.32l-0.771,0.318
		c-0.037-0.006-0.068-0.021-0.105-0.021c-0.195,0-0.355,0.105-0.457,0.254l-0.875,0.363c-0.02-0.002-0.039-0.012-0.063-0.012
		c-0.178,0-0.328,0.088-0.432,0.217l-0.879,0.365c-0.035-0.008-0.068-0.021-0.104-0.021c-0.195,0-0.357,0.104-0.455,0.252
		l-0.684,0.283c-0.074-0.035-0.152-0.059-0.24-0.059c-0.242,0-0.443,0.158-0.52,0.375l-0.84,0.348
		c-0.027-0.002-0.051-0.016-0.08-0.016c-0.184,0-0.338,0.094-0.441,0.23l-0.879,0.367c-0.012-0.002-0.023-0.008-0.033-0.008
		c-0.17,0-0.314,0.076-0.418,0.193l-1.074,0.445c-0.016-0.002-0.031-0.008-0.049-0.008c-0.172,0-0.32,0.082-0.422,0.203
		l-0.779,0.324c-0.029-0.004-0.053-0.016-0.082-0.016c-0.184,0-0.338,0.096-0.441,0.232l-1.039,0.43
		c-0.043-0.01-0.084-0.025-0.131-0.025c-0.203,0-0.371,0.113-0.471,0.275l-0.617,0.256c-0.021-0.004-0.043-0.014-0.066-0.014
		c-0.182,0-0.334,0.09-0.436,0.223l-0.881,0.363c-0.053-0.016-0.104-0.031-0.162-0.031c-0.215,0-0.393,0.125-0.488,0.301
		l-0.602,0.25c-0.057-0.02-0.113-0.035-0.176-0.035c-0.221,0-0.408,0.131-0.5,0.316l-0.572,0.236l-0.648-0.215
		c-0.102-0.133-0.254-0.225-0.436-0.225c-0.055,0-0.102,0.016-0.15,0.029l-0.596-0.199l0.287,25.9
		C519.786,356.851,530.563,358.991,540.069,361.378L540.069,361.378z M483.456,316.048c-0.098-0.084-0.223-0.139-0.361-0.139
		c-0.307,0-0.559,0.25-0.559,0.557c0,0.311,0.252,0.561,0.559,0.561c0.127,0,0.24-0.049,0.334-0.121
		C483.396,316.628,483.401,316.343,483.456,316.048L483.456,316.048z M483.497,314.466c-0.307,0-0.559,0.252-0.559,0.559
		c0,0.309,0.252,0.561,0.559,0.561c0.033,0,0.061-0.014,0.092-0.018c0.094-0.258,0.225-0.521,0.404-0.789
		C483.901,314.595,483.718,314.466,483.497,314.466L483.497,314.466z M484.817,313.825c0.002-0.027,0.016-0.053,0.016-0.082
		c0-0.309-0.25-0.561-0.561-0.561c-0.307,0-0.559,0.252-0.559,0.561c0,0.311,0.252,0.561,0.559,0.561
		c0.037,0,0.068-0.014,0.105-0.021C484.509,314.132,484.655,313.978,484.817,313.825L484.817,313.825z M483.358,317.431
		c-0.311,0-0.563,0.25-0.563,0.559c0,0.311,0.252,0.561,0.563,0.561c0.232,0,0.434-0.148,0.516-0.354
		c-0.133-0.232-0.244-0.475-0.326-0.727C483.489,317.446,483.425,317.431,483.358,317.431L483.358,317.431z M484.61,320.265
		c0,0.311,0.252,0.561,0.561,0.561s0.559-0.25,0.559-0.561c0-0.035-0.016-0.068-0.021-0.1c-0.182-0.139-0.367-0.291-0.555-0.457
		C484.853,319.72,484.61,319.964,484.61,320.265L484.61,320.265z M485.853,321.015c0,0.309,0.248,0.559,0.559,0.559
		c0.309,0,0.559-0.252,0.559-0.559c0-0.012-0.006-0.021-0.008-0.031c-0.168-0.096-0.447-0.256-0.777-0.479
		C485.989,320.591,485.853,320.786,485.853,321.015L485.853,321.015z M484.079,318.683c-0.309,0-0.561,0.252-0.561,0.561
		c0,0.311,0.252,0.559,0.561,0.559c0.311,0,0.559-0.25,0.559-0.559c0-0.016-0.008-0.027-0.008-0.041
		c-0.145-0.156-0.287-0.32-0.416-0.492C484.169,318.7,484.126,318.683,484.079,318.683L484.079,318.683z M521.378,316.81
		c-0.119-0.352-0.199-0.668-0.279-0.977h-0.014c-0.08,0.316-0.168,0.643-0.271,0.969l-0.523,1.551h1.613L521.378,316.81
		L521.378,316.81z M497.714,316.81c-0.121-0.352-0.199-0.668-0.279-0.977h-0.016c-0.08,0.316-0.166,0.643-0.271,0.969l-0.523,1.551
		h1.613L497.714,316.81L497.714,316.81z M487.155,312.196c0.018-0.055,0.035-0.111,0.035-0.17c0-0.309-0.25-0.559-0.559-0.559
		s-0.561,0.25-0.561,0.559c0,0.262,0.182,0.469,0.424,0.533c0.176-0.111,0.35-0.219,0.543-0.33L487.155,312.196L487.155,312.196z
		 M488.817,311.519c0-0.309-0.252-0.561-0.559-0.561c-0.311,0-0.561,0.252-0.561,0.561c0,0.189,0.1,0.348,0.244,0.449l0.834-0.24
		C488.8,311.663,488.817,311.591,488.817,311.519L488.817,311.519z M490.495,311.011c0-0.311-0.252-0.561-0.559-0.561
		c-0.311,0-0.561,0.252-0.561,0.561c0,0.199,0.111,0.365,0.268,0.463l0.795-0.229C490.472,311.173,490.495,311.095,490.495,311.011
		L490.495,311.011z M489.95,322.847c0,0.311,0.252,0.559,0.561,0.559s0.559-0.248,0.559-0.559c0-0.107-0.039-0.203-0.094-0.289
		l-0.615-0.24C490.126,322.386,489.95,322.591,489.95,322.847L489.95,322.847z M491.384,323.401c0,0.309,0.252,0.559,0.561,0.559
		s0.559-0.25,0.559-0.559c0-0.109-0.039-0.205-0.096-0.293l-0.611-0.236C491.562,322.938,491.384,323.146,491.384,323.401
		L491.384,323.401z M492.901,324.021c0,0.309,0.25,0.561,0.561,0.561c0.307,0,0.559-0.252,0.559-0.561
		c0-0.131-0.053-0.244-0.127-0.34l-0.523-0.201C493.106,323.524,492.901,323.741,492.901,324.021L492.901,324.021z M488.538,322.308
		c0,0.309,0.25,0.559,0.559,0.559s0.561-0.25,0.561-0.559c0-0.111-0.045-0.211-0.1-0.299l-0.604-0.23
		C488.718,321.841,488.538,322.05,488.538,322.308L488.538,322.308z M487.173,321.696c0,0.309,0.252,0.561,0.563,0.561
		c0.307,0,0.557-0.252,0.557-0.561c0-0.066-0.016-0.129-0.037-0.191l-0.775-0.299C487.302,321.3,487.173,321.483,487.173,321.696
		L487.173,321.696z M502.589,327.831c0,0.307,0.25,0.559,0.559,0.559s0.559-0.252,0.559-0.559c0-0.098-0.029-0.184-0.072-0.264
		l-0.666-0.26C502.749,327.382,502.589,327.585,502.589,327.831L502.589,327.831z M501.155,327.321c0,0.309,0.25,0.559,0.559,0.559
		s0.559-0.25,0.559-0.559c0-0.127-0.049-0.238-0.121-0.332l-0.529-0.207C501.358,326.827,501.155,327.046,501.155,327.321
		L501.155,327.321z M499.739,326.749c0,0.309,0.252,0.559,0.561,0.559s0.559-0.25,0.559-0.559c0-0.115-0.045-0.217-0.102-0.305
		l-0.588-0.229C499.925,326.276,499.739,326.487,499.739,326.749L499.739,326.749z M504.009,328.388c0,0.307,0.25,0.557,0.561,0.557
		c0.309,0,0.559-0.25,0.559-0.557c0-0.102-0.031-0.188-0.076-0.268l-0.66-0.258C504.171,327.937,504.009,328.14,504.009,328.388
		L504.009,328.388z M511.29,329.21c0,0.309,0.248,0.559,0.557,0.559s0.559-0.25,0.559-0.559c0-0.252-0.17-0.457-0.398-0.529
		l-0.648,0.27C511.317,329.03,511.29,329.114,511.29,329.21L511.29,329.21z M510.021,329.726c0,0.307,0.252,0.559,0.561,0.559
		s0.559-0.252,0.559-0.559c0-0.248-0.16-0.449-0.383-0.525l-0.676,0.281C510.046,329.556,510.021,329.638,510.021,329.726
		L510.021,329.726z M507.866,329.837c0,0.309,0.25,0.559,0.559,0.559s0.559-0.25,0.559-0.559c0-0.127-0.051-0.238-0.123-0.332
		l-0.586-0.197C508.04,329.374,507.866,329.581,507.866,329.837L507.866,329.837z M512.765,328.655c0,0.307,0.25,0.557,0.561,0.557
		c0.309,0,0.559-0.25,0.559-0.557c0-0.287-0.215-0.512-0.492-0.547l-0.502,0.209C512.815,328.411,512.765,328.524,512.765,328.655
		L512.765,328.655z M513.921,328.138c0,0.307,0.25,0.559,0.559,0.559c0.311,0,0.561-0.252,0.561-0.559
		c0-0.264-0.184-0.475-0.428-0.533l-0.602,0.248C513.96,327.937,513.921,328.03,513.921,328.138L513.921,328.138z M498.333,326.222
		c0,0.311,0.252,0.561,0.561,0.561c0.307,0,0.561-0.25,0.561-0.561c0-0.127-0.053-0.238-0.125-0.334l-0.527-0.205
		C498.538,325.728,498.333,325.946,498.333,326.222L498.333,326.222z M497.017,325.651c0,0.309,0.25,0.559,0.559,0.559
		s0.559-0.25,0.559-0.559c0-0.096-0.029-0.18-0.068-0.258l-0.678-0.264C497.171,325.208,497.017,325.409,497.017,325.651
		L497.017,325.651z M515.534,327.499c0,0.309,0.25,0.559,0.557,0.559c0.311,0,0.561-0.25,0.561-0.559
		c0-0.279-0.209-0.504-0.479-0.543l-0.521,0.217C515.583,327.265,515.534,327.374,515.534,327.499L515.534,327.499z M519.71,325.767
		c0,0.313,0.252,0.561,0.559,0.561c0.311,0,0.561-0.248,0.561-0.561c0-0.279-0.211-0.502-0.48-0.543l-0.521,0.217
		C519.761,325.534,519.71,325.642,519.71,325.767L519.71,325.767z M518.354,326.356c0,0.309,0.25,0.559,0.561,0.559
		c0.309,0,0.559-0.25,0.559-0.559c0-0.297-0.232-0.533-0.525-0.551l-0.451,0.186C518.411,326.091,518.354,326.216,518.354,326.356
		L518.354,326.356z M516.815,326.985c0,0.311,0.25,0.561,0.561,0.561c0.309,0,0.557-0.25,0.557-0.561
		c0-0.289-0.225-0.523-0.51-0.549l-0.471,0.195C516.87,326.729,516.815,326.851,516.815,326.985L516.815,326.985z M521.151,325.06
		c0,0.311,0.25,0.559,0.559,0.559s0.561-0.248,0.561-0.559c0-0.223-0.133-0.41-0.322-0.5l-0.76,0.316
		C521.169,324.933,521.151,324.993,521.151,325.06L521.151,325.06z M525.337,323.419c0,0.307,0.252,0.557,0.559,0.557
		c0.311,0,0.561-0.25,0.561-0.557c0-0.271-0.197-0.488-0.455-0.539l-0.563,0.232C525.38,323.202,525.337,323.304,525.337,323.419
		L525.337,323.419z M523.94,324.022c0,0.309,0.254,0.559,0.563,0.559c0.307,0,0.559-0.25,0.559-0.559
		c0-0.287-0.221-0.516-0.498-0.547l-0.494,0.205C523.995,323.776,523.94,323.892,523.94,324.022L523.94,324.022z M522.528,324.583
		c0,0.311,0.25,0.561,0.559,0.561s0.559-0.25,0.559-0.561c0-0.271-0.195-0.486-0.455-0.537l-0.559,0.23
		C522.571,324.366,522.528,324.468,522.528,324.583L522.528,324.583z M526.714,322.802c0,0.309,0.25,0.559,0.559,0.559
		c0.311,0,0.561-0.25,0.561-0.559c0-0.244-0.16-0.447-0.381-0.523l-0.68,0.283C526.737,322.634,526.714,322.714,526.714,322.802
		L526.714,322.802z M530.901,320.874c0,0.309,0.252,0.561,0.561,0.561s0.557-0.252,0.557-0.561c0-0.301-0.238-0.543-0.535-0.553
		c-0.174,0.121-0.355,0.246-0.545,0.371C530.917,320.751,530.901,320.812,530.901,320.874L530.901,320.874z M529.464,321.595
		c0,0.309,0.252,0.557,0.557,0.557c0.313,0,0.563-0.248,0.563-0.557c0-0.217-0.125-0.395-0.301-0.49l-0.783,0.324
		C529.481,321.483,529.464,321.536,529.464,321.595L529.464,321.595z M528.067,322.272c0,0.309,0.252,0.561,0.559,0.561
		c0.309,0,0.559-0.252,0.559-0.561c0-0.262-0.188-0.475-0.432-0.533l-0.596,0.246C528.104,322.071,528.067,322.165,528.067,322.272
		L528.067,322.272z M532.185,319.896c0,0.309,0.252,0.559,0.559,0.559c0.309,0,0.561-0.25,0.561-0.559
		c0-0.311-0.252-0.559-0.561-0.559c-0.004,0-0.008,0.002-0.012,0.002c-0.162,0.143-0.34,0.287-0.523,0.436
		C532.2,319.813,532.185,319.853,532.185,319.896L532.185,319.896z M532.921,312.341c0-0.309-0.252-0.559-0.561-0.559
		s-0.559,0.25-0.559,0.559c0,0.066,0.018,0.125,0.037,0.184c0.207,0.107,0.42,0.225,0.635,0.355
		C532.726,312.827,532.921,312.61,532.921,312.341L532.921,312.341z M531.345,311.687c0-0.309-0.25-0.561-0.561-0.561
		c-0.307,0-0.557,0.252-0.557,0.561c0,0.061,0.016,0.115,0.035,0.172c0.148,0.051,0.438,0.15,0.801,0.305
		C531.228,312.065,531.345,311.894,531.345,311.687L531.345,311.687z M529.892,311.034c0-0.309-0.248-0.561-0.559-0.561
		c-0.309,0-0.559,0.252-0.559,0.561c0,0.104,0.035,0.195,0.084,0.279l0.629,0.248C529.72,311.493,529.892,311.288,529.892,311.034
		L529.892,311.034z M533.739,313.802c0.309,0,0.559-0.25,0.559-0.559s-0.25-0.561-0.559-0.561c-0.311,0-0.561,0.252-0.561,0.561
		c0,0.051,0.018,0.096,0.029,0.143c0.162,0.127,0.316,0.262,0.463,0.402C533.694,313.792,533.716,313.802,533.739,313.802
		L533.739,313.802z M534.663,317.96c0.311,0,0.561-0.25,0.561-0.559s-0.25-0.559-0.561-0.559c-0.031,0-0.061,0.014-0.092,0.018
		c-0.086,0.262-0.215,0.533-0.387,0.814C534.282,317.843,534.456,317.96,534.663,317.96L534.663,317.96z M534.696,316.343
		c0.098,0.084,0.221,0.139,0.359,0.139c0.309,0,0.559-0.25,0.559-0.557c0-0.311-0.25-0.561-0.559-0.561
		c-0.146,0-0.275,0.059-0.375,0.15C534.731,315.776,534.737,316.052,534.696,316.343L534.696,316.343z M534.694,314.915
		c0.309,0,0.557-0.252,0.557-0.559c0-0.311-0.248-0.561-0.557-0.561c-0.299,0-0.535,0.234-0.553,0.527
		c0.127,0.174,0.234,0.352,0.324,0.541C534.536,314.896,534.612,314.915,534.694,314.915L534.694,314.915z M533.839,319.271
		c0.307,0,0.557-0.252,0.557-0.561c0-0.303-0.24-0.547-0.543-0.555c-0.16,0.209-0.344,0.424-0.557,0.645
		C533.341,319.063,533.56,319.271,533.839,319.271L533.839,319.271z M324.333,310.101c0.687,0,1.242-0.557,1.242-1.242
		s-0.556-1.242-1.242-1.242c-0.686,0-1.242,0.557-1.242,1.242S323.647,310.101,324.333,310.101L324.333,310.101z M334.878,298.464
		c0.686,0,1.244-0.555,1.244-1.24s-0.559-1.242-1.244-1.242c-0.685,0-1.241,0.557-1.241,1.242S334.192,298.464,334.878,298.464
		L334.878,298.464z M350.423,295.651c0.684,0,1.242-0.557,1.242-1.242c0-0.687-0.559-1.241-1.242-1.241
		c-0.686,0-1.243,0.555-1.243,1.241C349.18,295.095,349.737,295.651,350.423,295.651L350.423,295.651z M355.446,297.013
		c0.688,0,1.244-0.557,1.244-1.242s-0.557-1.242-1.244-1.242c-0.685,0-1.24,0.557-1.24,1.242S354.761,297.013,355.446,297.013
		L355.446,297.013z M372.36,320.856c0-0.686-0.557-1.242-1.242-1.242s-1.241,0.557-1.241,1.242c0,0.688,0.556,1.242,1.241,1.242
		S372.36,321.544,372.36,320.856L372.36,320.856z M322.259,320.224c0.686,0,1.241-0.555,1.241-1.242
		c0-0.686-0.556-1.242-1.241-1.242c-0.688,0-1.242,0.557-1.242,1.242C321.017,319.669,321.571,320.224,322.259,320.224
		L322.259,320.224z M321.646,324.079c0,0.686,0.559,1.242,1.243,1.242s1.243-0.557,1.243-1.242s-0.559-1.242-1.243-1.242
		S321.646,323.394,321.646,324.079L321.646,324.079z M332.078,339.442c0.688,0,1.241-0.557,1.241-1.24
		c0-0.688-0.553-1.244-1.241-1.244c-0.685,0-1.24,0.557-1.24,1.244C330.838,338.886,331.394,339.442,332.078,339.442
		L332.078,339.442z M367.995,329.532c-0.686,0-1.241,0.559-1.241,1.242c0,0.688,0.556,1.246,1.241,1.246s1.241-0.559,1.241-1.246
		C369.236,330.091,368.681,329.532,367.995,329.532L367.995,329.532z M370.128,327.108c0.688,0,1.244-0.557,1.244-1.24
		c0-0.688-0.556-1.242-1.244-1.242c-0.686,0-1.24,0.555-1.24,1.242C368.888,326.554,369.442,327.108,370.128,327.108
		L370.128,327.108z M369.841,311.8c0.687,0,1.242-0.555,1.242-1.242c0-0.686-0.556-1.24-1.242-1.24c-0.686,0-1.242,0.555-1.242,1.24
		C368.599,311.245,369.155,311.8,369.841,311.8L369.841,311.8z M364.452,303.011c0.686,0,1.244-0.555,1.244-1.242
		c0-0.685-0.559-1.241-1.244-1.241c-0.685,0-1.241,0.557-1.241,1.241C363.211,302.456,363.768,303.011,364.452,303.011
		L364.452,303.011z M330.478,301.603c0.686,0,1.242-0.557,1.242-1.242s-0.557-1.241-1.242-1.241s-1.241,0.556-1.241,1.241
		S329.792,301.603,330.478,301.603L330.478,301.603z M326.876,305.583c0.685,0,1.242-0.557,1.242-1.241
		c0-0.688-0.557-1.243-1.242-1.243s-1.242,0.555-1.242,1.243C325.634,305.026,326.19,305.583,326.876,305.583L326.876,305.583z
		 M322.751,315.009c0.688,0,1.242-0.555,1.242-1.24s-0.555-1.242-1.242-1.242c-0.686,0-1.242,0.557-1.242,1.242
		S322.065,315.009,322.751,315.009L322.751,315.009z M525.401,318.106c-0.875-0.313-1.416-0.764-1.416-1.52
		c0-0.832,0.689-1.453,1.732-1.453c0.549,0,0.945,0.127,1.184,0.262l-0.191,0.564c-0.174-0.096-0.531-0.254-1.016-0.254
		c-0.73,0-1.01,0.436-1.01,0.803c0,0.5,0.326,0.748,1.064,1.033c0.906,0.35,1.367,0.787,1.367,1.572
		c0,0.828-0.611,1.543-1.875,1.543c-0.516,0-1.082-0.152-1.367-0.342l0.176-0.58c0.311,0.191,0.762,0.35,1.238,0.35
		c0.707,0,1.121-0.375,1.121-0.914C526.409,318.669,526.124,318.384,525.401,318.106L525.401,318.106z M520.694,315.22h0.836
		l1.828,5.357h-0.74l-0.574-1.686h-1.898l-0.555,1.686h-0.717L520.694,315.22L520.694,315.22z M516.726,315.165
		c0.623,0,1.105,0.135,1.338,0.246l-0.168,0.564c-0.287-0.127-0.643-0.23-1.184-0.23c-1.305,0-2.154,0.813-2.154,2.154
		c0,1.359,0.818,2.162,2.066,2.162c0.453,0,0.764-0.063,0.922-0.145v-1.596h-1.088v-0.557h1.764v2.574
		c-0.311,0.111-0.922,0.293-1.646,0.293c-0.809,0-1.479-0.205-2.002-0.707c-0.461-0.445-0.746-1.16-0.746-1.994
		C513.835,316.333,514.931,315.165,516.726,315.165L516.726,315.165z M510.233,315.22h2.893v0.582h-2.201v1.691h2.082v0.572h-2.082
		v1.932h2.32v0.58h-3.012V315.22L510.233,315.22L510.233,315.22z M505.972,315.22l0.834,2.639c0.232,0.725,0.43,1.375,0.572,2.004
		h0.018c0.15-0.621,0.373-1.295,0.611-1.996l0.906-2.646h0.74l-1.918,5.357h-0.764l-1.746-5.357H505.972L505.972,315.22z
		 M505.052,328.12l0.186,0.072l-0.074,10.48l-0.352-0.4l-3.246,0.574l-0.059-0.594l-0.324-0.313l-0.266,0.033l-0.152-0.184v-0.502
		l-0.32-0.316l-0.572,0.15l-0.172-0.111l-2.881,0.496l0.08-12.566l0.488,0.189c0.059-0.021,0.121-0.039,0.188-0.039
		c0.215,0,0.395,0.125,0.488,0.303l0.738,0.289c0.031-0.006,0.059-0.02,0.092-0.02c0.18,0,0.334,0.092,0.436,0.225l0.84,0.328
		c0.043-0.012,0.084-0.027,0.131-0.027c0.195,0,0.355,0.104,0.457,0.256l0.865,0.338c0.029-0.006,0.061-0.02,0.092-0.02
		c0.182,0,0.334,0.092,0.438,0.227l0.816,0.316c0.057-0.018,0.115-0.035,0.18-0.035c0.213,0,0.389,0.123,0.486,0.297l0.758,0.295
		c0.055-0.018,0.115-0.035,0.178-0.035C504.78,327.827,504.958,327.948,505.052,328.12L505.052,328.12z M504.665,303.146
		l-1.766-2.609l1.793-0.194L504.665,303.146L504.665,303.146z M504.702,299.17l-1.803-0.361l1.83-2.545L504.702,299.17
		L504.702,299.17z M504.554,296.063l-2.875,2.135l-0.23-2.135H504.554L504.554,296.063z M501.679,301.655l2.984,1.809l-0.02,2.304
		c-0.275-0.095-0.572-0.147-0.879-0.147c-1.16,0-2.15,0.734-2.527,1.766l-0.346,0.16L501.679,301.655L501.679,301.655z
		 M502.054,315.134c0.547,0,0.945,0.127,1.184,0.262l-0.191,0.564c-0.174-0.096-0.531-0.254-1.016-0.254
		c-0.732,0-1.012,0.436-1.012,0.803c0,0.5,0.326,0.748,1.066,1.033c0.906,0.35,1.365,0.787,1.365,1.572
		c0,0.828-0.611,1.543-1.873,1.543c-0.52,0-1.082-0.152-1.369-0.342l0.176-0.58c0.309,0.191,0.764,0.35,1.24,0.35
		c0.707,0,1.121-0.375,1.121-0.914c0-0.5-0.287-0.785-1.01-1.064c-0.875-0.311-1.416-0.764-1.416-1.518
		C500.319,315.755,501.011,315.134,502.054,315.134L502.054,315.134z M500.735,307.62l-0.033,0.016
		c-0.301-1.158-1.354-2.016-2.605-2.016c-0.324,0-0.633,0.058-0.918,0.16l-0.02-2.351l3.098-1.876L500.735,307.62L500.735,307.62z
		 M497.136,300.287l2.002,0.352l-1.979,2.608L497.136,300.287L497.136,300.287z M500.47,296.063l-0.213,1.933l-2.576-1.933H500.47
		L500.47,296.063z M497.284,296.063l1.65,2.949l-1.807,0.195l-0.025-3.145H497.284L497.284,296.063z M497.03,315.22h0.834
		l1.826,5.357h-0.738l-0.572-1.686h-1.898l-0.557,1.686h-0.715L497.03,315.22L497.03,315.22z M491.864,320.577v-5.357h0.689v4.779
		h2.289v0.578H491.864L491.864,320.577z M418.452,327.354h3.131c0,0.627,0.836,5.08,0.836,5.08h-4.732
		C417.897,331.948,418.452,327.354,418.452,327.354L418.452,327.354z M419.985,340.507c2.414,0.068,4.064,0.904,5.197,2.006
		c-3.291-0.188-6.637-0.334-10.029-0.441C417.353,340.356,419.985,340.507,419.985,340.507L419.985,340.507z M402.292,276.075
		l0.135,2.414c-0.629,0.93-1.256-2.758-1.256-2.758C401.208,275.884,402.292,276.075,402.292,276.075L402.292,276.075z
		 M338.712,341.163l-5.621,0.121v0.846l0.907,0.061l-0.042,5.602c-2.527,0.441-5.07,0.906-7.63,1.4l0.172-15.154
		c0.001,0.686,0.558,1.24,1.243,1.24s1.242-0.557,1.242-1.242s-0.557-1.242-1.242-1.242s-1.24,0.557-1.243,1.238l0.019-1.656
		l0.411-0.389l0.065-0.346l-0.389-0.107l0.053-1.301c2.741,4.74,7.107,8.424,12.342,10.279L338.712,341.163L338.712,341.163z
		 M346.417,340.866c-2.105-0.029-4.143-0.354-6.066-0.932c0.762-2.326,4.783-14.602,6.066-18.801V340.866L346.417,340.866z
		 M346.417,319.71c-0.292,0.764-0.869,2.27-1.563,4.137c0.741-2.943,1.323-5.469,1.563-6.736V319.71L346.417,319.71z
		 M347.548,340.856v-18.482c1.11,4.432,4.82,16.1,5.314,17.65C351.167,340.507,349.384,340.792,347.548,340.856L347.548,340.856z
		 M347.548,320.931v-2.668c0.498,2.201,1.876,7.268,3.187,11.971C349.366,326.19,347.973,322.157,347.548,320.931L347.548,320.931z
		 M324.522,318.638c0-12.281,9.955-22.236,22.234-22.236s22.235,9.955,22.235,22.236c0,9.67-6.173,17.895-14.793,20.957
		c-0.601-3.139-5.97-20.912-6.651-23.162v-0.398c0.285-0.182,0.473-0.5,0.473-0.861c0-0.566-0.459-1.029-1.027-1.029
		c-0.566,0-1.027,0.463-1.027,1.029c0,0.355,0.178,0.668,0.451,0.852v0.43c-0.863,2.129-6.24,20.082-7.149,23.123
		c-5.509-1.971-10.007-6.051-12.531-11.268l0.04-1.012l0.434-0.453l-0.218-0.195c0-0.582-0.366-0.107-0.366-0.107l-0.727-0.18
		C325.009,323.954,324.522,321.354,324.522,318.638L324.522,318.638z"/>
</g>
<image overflow="visible" width="300" height="107" xlink:href="resources/300px-Owasp_logo_1c.jpg"  transform="matrix(1.5367 0 0 1.5367 -1573.4658 -329.9775)">
</image>
<text transform="matrix(1 0 0 1 -1526.5815 -22.0957)" fill="#FF00FF" font-family="'HouseGothicHG23Text-Light'" font-size="88">OWASP</text>
<text transform="matrix(1 0 0 1 -1523.1479 0)" fill="#FF00FF" font-family="'HouseGothicHG23Text-Light'" font-size="24">Las Vegas</text>
<g>
	<g>
		<path d="M372.771,308.591c-9.135,0-10.191-2.821-10.191-7.055v-12.624c0-4.194,1.057-7.057,10.191-7.057
			c9.173,0,10.23,2.862,10.23,7.057v12.624C383.002,305.77,381.944,308.591,372.771,308.591z M379.867,289.265
			c0-3.214-0.55-4.938-7.096-4.938c-6.508,0-7.056,1.725-7.056,4.938v11.917c0,3.215,0.548,4.939,7.056,4.939
			c6.546,0,7.096-1.725,7.096-4.939V289.265z"/>
		<path d="M406.013,282.17v18.973c0,3.214,0.628,4.939,5.331,4.939c4.782,0,5.331-1.726,5.331-4.939V282.17h3.137v19.366
			c0,4.233-1.098,7.055-8.468,7.055c-4.194,0-6.075-1.725-6.898-3.057c-0.823,1.332-2.705,3.057-6.899,3.057
			c-7.369,0-8.468-2.821-8.468-7.055V282.17h3.137v18.973c0,3.214,0.549,4.939,5.331,4.939c4.704,0,5.331-1.726,5.331-4.939V282.17
			H406.013z"/>
		<path d="M446.231,308.317h-3.135v-9.683h-13.956v9.683h-3.136v-19.405c0-4.194,0.98-7.057,10.113-7.057
			c9.134,0,10.113,2.862,10.113,7.057V308.317z M443.097,289.265c0-3.214-0.432-4.938-6.979-4.938c-6.545,0-6.978,1.725-6.978,4.938
			v6.625h13.956V289.265z"/>
		<path d="M462.266,308.631c-9.134,0-10.113-2.861-10.113-7.056v-2.078h3.135v1.725c0,3.214,0.432,4.939,6.979,4.939
			c6.546,0,6.978-1.726,6.978-4.939v-0.392c0-2.392-1.177-3.332-3.568-3.724l-8.151-1.295c-3.725-0.588-5.371-2.665-5.371-5.566
			v-1.293c0-4.233,0.979-7.056,10.113-7.056c9.133,0,10.113,2.822,10.113,7.056v0.902h-3.136v-0.549
			c0-3.215-0.432-4.939-6.978-4.939c-6.547,0-6.979,1.725-6.979,4.939v0.627c0,1.725,0.628,2.783,2.94,3.175l8.703,1.411
			c3.566,0.588,5.448,2.392,5.448,5.646v1.411C472.379,305.77,471.398,308.631,462.266,308.631z"/>
		<path d="M490.332,300.79h-8.702v7.527h-3.137V282.17h11.839c6.429,0,8.39,2.822,8.39,7.056v4.508
			C498.722,297.929,496.761,300.79,490.332,300.79z M495.585,289.54c0-3.214-1.45-4.899-5.253-4.899h-8.702v13.68h8.702
			c3.843,0,5.253-1.725,5.253-4.939V289.54z"/>
	</g>
	<g>
		<path fill="#00549E" d="M363.479,323.11v-7.133h0.854v6.405h3.839v0.728H363.479z"/>
		<path fill="#00549E" d="M373.356,323.11l-0.117-0.6c-0.503,0.48-0.983,0.663-2.106,0.663c-1.325,0-1.956-0.674-1.956-1.507
			c0-0.867,0.396-1.658,2.416-1.658h1.646v-0.268c0-0.844-0.342-1.219-1.476-1.219c-1.091,0-1.529,0.289-1.529,0.76l-0.802-0.074
			c0-0.867,0.791-1.316,2.331-1.316c1.785,0,2.277,0.664,2.277,1.744v3.475H373.356z M373.239,320.641h-1.646
			c-1.434,0-1.614,0.587-1.614,1.004c0,0.396,0.331,0.845,1.282,0.845c1.326,0,1.979-0.417,1.979-1.186V320.641z"/>
		<path fill="#00549E" d="M377.793,323.174c-1.828,0-2.352-0.599-2.352-1.55v-0.054h0.802v0.021c0,0.728,0.502,0.953,1.55,0.953
			c1.465,0,1.55-0.59,1.55-0.824c0-0.405-0.148-0.598-0.587-0.673l-2.106-0.385c-0.824-0.151-1.208-0.567-1.208-1.22
			s0.181-1.551,2.319-1.551c1.796,0,2.299,0.588,2.299,1.54v0.053h-0.802v-0.01c0-0.716-0.47-0.952-1.497-0.952
			c-1.347,0-1.518,0.513-1.518,0.825c0,0.373,0.117,0.565,0.546,0.641l2.116,0.364c0.919,0.158,1.24,0.684,1.24,1.207
			C380.146,322.286,379.964,323.174,377.793,323.174z"/>
		<path fill="#00549E" d="M387.5,323.11h-0.812l-2.62-7.133h0.866l2.16,5.913l2.17-5.913h0.866L387.5,323.11z"/>
		<path fill="#00549E" d="M392.814,323.174c-2.117,0-2.396-0.76-2.396-1.731v-1.807c0-0.974,0.278-1.744,2.396-1.744
			c2.106,0,2.385,0.771,2.385,1.744v1.101h-3.978v0.599c0,0.717,0.127,1.209,1.593,1.209c1.4,0,1.572-0.481,1.582-1.049h0.803
			C395.199,322.394,394.931,323.174,392.814,323.174z M392.814,318.522c-1.466,0-1.593,0.502-1.593,1.219v0.354h3.175v-0.354
			C394.396,319.024,394.28,318.522,392.814,318.522z"/>
		<path fill="#00549E" d="M396.545,319.688c0-1.015,0.3-1.796,2.192-1.796c0.919,0,1.433,0.269,1.679,0.652l0.117-0.588h0.685v5.741
			c0,0.984-0.289,1.689-2.299,1.689c-2.031,0-2.32-0.726-2.32-1.572h0.802c0.011,0.536,0.192,0.942,1.519,0.942
			c1.422,0,1.497-0.438,1.497-1.145v-1.09c-0.3,0.416-0.792,0.651-1.679,0.651c-1.893,0-2.192-0.78-2.192-1.796V319.688z
			 M397.347,321.228c0,0.835,0.15,1.262,1.54,1.262s1.529-0.427,1.529-1.262v-1.389c0-0.835-0.14-1.263-1.529-1.263
			s-1.54,0.428-1.54,1.263V321.228z"/>
		<path fill="#00549E" d="M406.852,323.11l-0.118-0.6c-0.502,0.48-0.983,0.663-2.105,0.663c-1.325,0-1.956-0.674-1.956-1.507
			c0-0.867,0.396-1.658,2.416-1.658h1.646v-0.268c0-0.844-0.342-1.219-1.475-1.219c-1.091,0-1.529,0.289-1.529,0.76l-0.801-0.074
			c0-0.867,0.79-1.316,2.33-1.316c1.785,0,2.277,0.664,2.277,1.744v3.475H406.852z M406.733,320.641h-1.646
			c-1.434,0-1.614,0.587-1.614,1.004c0,0.396,0.331,0.845,1.281,0.845c1.327,0,1.979-0.417,1.979-1.186V320.641z"/>
		<path fill="#00549E" d="M411.288,323.174c-1.828,0-2.353-0.599-2.353-1.55v-0.054h0.803v0.021c0,0.728,0.503,0.953,1.55,0.953
			c1.465,0,1.55-0.59,1.55-0.824c0-0.405-0.149-0.598-0.587-0.673l-2.107-0.385c-0.823-0.151-1.208-0.567-1.208-1.22
			s0.183-1.551,2.32-1.551c1.796,0,2.299,0.588,2.299,1.54v0.053h-0.802v-0.01c0-0.716-0.471-0.952-1.497-0.952
			c-1.348,0-1.518,0.513-1.518,0.825c0,0.373,0.116,0.565,0.544,0.641l2.118,0.364c0.92,0.158,1.24,0.684,1.24,1.207
			C413.641,322.286,413.459,323.174,411.288,323.174z"/>
		<path fill="#00549E" d="M420.771,323.184c-2.492,0-2.759-0.77-2.759-1.923v-3.444c0-1.144,0.267-1.923,2.759-1.923
			c2.49,0,2.759,0.779,2.759,1.923v0.429h-0.856v-0.332c0-0.876-0.118-1.347-1.902-1.347c-1.786,0-1.904,0.471-1.904,1.347v3.251
			c0,0.888,0.118,1.347,1.904,1.347c1.784,0,1.902-0.459,1.902-1.347v-0.535h0.856v0.632
			C423.53,322.414,423.262,323.184,420.771,323.184z"/>
		<path fill="#00549E" d="M428.949,323.11v-3.271c0-0.835-0.138-1.263-1.529-1.263c-1.121,0-1.518,0.386-1.518,1.304v3.23h-0.802
			v-7.133h0.802v2.578c0.247-0.396,0.749-0.664,1.668-0.664c1.893,0,2.182,0.781,2.182,1.796v3.423H428.949z"/>
		<path fill="#00549E" d="M435.333,323.11l-0.119-0.6c-0.502,0.48-0.983,0.663-2.104,0.663c-1.327,0-1.958-0.674-1.958-1.507
			c0-0.867,0.396-1.658,2.416-1.658h1.646v-0.268c0-0.844-0.342-1.219-1.474-1.219c-1.093,0-1.53,0.289-1.53,0.76l-0.802-0.074
			c0-0.867,0.791-1.316,2.332-1.316c1.785,0,2.275,0.664,2.275,1.744v3.475H435.333z M435.214,320.641h-1.646
			c-1.432,0-1.614,0.587-1.614,1.004c0,0.396,0.333,0.845,1.283,0.845c1.327,0,1.978-0.417,1.978-1.186V320.641z"/>
		<path fill="#00549E" d="M442.195,321.378c0,1.016-0.298,1.796-2.191,1.796c-0.92,0-1.442-0.267-1.678-0.663v2.738h-0.802v-7.293
			h0.685l0.117,0.6c0.181-0.321,0.661-0.664,1.678-0.664c1.894,0,2.191,0.781,2.191,1.796V321.378z M439.865,318.576
			c-1.39,0-1.539,0.428-1.539,1.263v1.389c0,0.835,0.149,1.262,1.539,1.262c1.391,0,1.528-0.427,1.528-1.262v-1.389
			C441.394,319.004,441.256,318.576,439.865,318.576z"/>
		<path fill="#00549E" d="M446.826,323.002c-0.279,0.086-0.792,0.172-1.198,0.172c-0.931,0-1.722-0.353-1.722-1.421v-3.155h-0.685
			v-0.642h0.685v-1.251h0.802v1.251h2.106v0.642h-2.106v3.112c0,0.598,0.405,0.823,1.017,0.823c0.417,0,0.789-0.075,1.102-0.15
			V323.002z"/>
		<path fill="#00549E" d="M450.481,323.174c-2.117,0-2.396-0.76-2.396-1.731v-1.807c0-0.974,0.278-1.744,2.396-1.744
			c2.106,0,2.385,0.771,2.385,1.744v1.101h-3.979v0.599c0,0.717,0.128,1.209,1.594,1.209c1.4,0,1.571-0.481,1.582-1.049h0.803
			C452.866,322.394,452.598,323.174,450.481,323.174z M450.481,318.522c-1.466,0-1.594,0.502-1.594,1.219v0.354h3.176v-0.354
			C452.063,319.024,451.946,318.522,450.481,318.522z"/>
		<path fill="#00549E" d="M456.627,318.544c-1.099,0-1.506,0.375-1.506,1.295v3.271h-0.802v-5.154h0.684l0.107,0.6
			c0.235-0.396,0.759-0.664,1.658-0.664c0.427,0,0.759,0.054,1.005,0.15v0.684C457.431,318.598,457.057,318.544,456.627,318.544z"/>
	</g>
	<path fill="#00549E" d="M334.903,318.004c0.536-1.327,0.732-8.343-0.141-15.038c-0.533-4.093-1.208-7.845-1.709-10.403
		c0.137-0.041,0.271-0.091,0.4-0.15l1.253,2.614c0,0,2.396,2.089,2.562,1.865c0.165-0.224-1.892-2.024-2.117-2.192
		c-0.042-0.123-0.277-0.831-0.525-1.576l0.647,0.74c0,0,3.748,1.011,3.836,0.748c0.088-0.264-3.255-1.206-3.492-1.286
		c-0.158-0.18-0.396-0.789-0.835-1.552l2.061,0.802c0,0,3.454-0.368,3.399-0.642c-0.055-0.272-2.835,0.055-3.182,0.123
		c-0.151-0.099-1.096-0.713-2.04-1.329c0.306-0.814,0.279-1.764-0.064-2.66c1.309,0.614,2.672,0.567,3.485-0.247
		c0.259-0.257,0.438-0.57,0.546-0.92c0.237-0.041,0.464-0.152,0.644-0.333c0.482-0.483,0.47-1.278-0.031-1.777
		c-0.243-0.244-0.559-0.371-0.874-0.382c0.811-0.395,1.905-0.857,2.259-0.825c0.802,0.075,2.221,1.006,2.235,1.014
		c0.092,0.062,0.215,0.035,0.275-0.056c0.062-0.093,0.035-0.216-0.057-0.276c-0.061-0.04-1.516-0.993-2.416-1.078
		c-0.517-0.048-1.814,0.544-2.478,0.866c-0.248-0.452-0.575-0.894-0.979-1.297c-0.403-0.402-0.845-0.73-1.297-0.978
		c0.322-0.663,0.914-1.962,0.866-2.478c-0.084-0.9-1.038-2.355-1.078-2.418c-0.061-0.091-0.184-0.116-0.275-0.056
		s-0.117,0.183-0.058,0.275c0.01,0.014,0.939,1.434,1.015,2.235c0.033,0.354-0.432,1.447-0.824,2.259
		c-0.011-0.314-0.138-0.63-0.382-0.874c-0.5-0.5-1.296-0.514-1.777-0.031c-0.181,0.181-0.292,0.407-0.334,0.645
		c-0.349,0.106-0.662,0.287-0.919,0.545c-0.815,0.813-0.861,2.178-0.248,3.484c-0.896-0.343-1.846-0.369-2.659-0.063
		c-0.617-0.944-1.231-1.888-1.33-2.039c0.069-0.347,0.396-3.127,0.123-3.183c-0.272-0.054-0.641,3.399-0.641,3.399l0.801,2.061
		c-0.762-0.439-1.372-0.676-1.552-0.834c-0.08-0.238-1.021-3.58-1.286-3.493c-0.263,0.089,0.749,3.837,0.749,3.837l0.739,0.647
		c-0.745-0.249-1.453-0.485-1.576-0.526c-0.168-0.226-1.968-2.282-2.191-2.117s1.864,2.562,1.864,2.562l2.614,1.253
		c-0.06,0.129-0.109,0.264-0.15,0.4c-2.558-0.501-6.309-1.176-10.401-1.709c-6.695-0.872-13.713-0.677-15.038-0.141
		c-1.326,0.537,6.168,4.8,8.179,5.332c3.872,1.023,5.509,0.804,6.031,0.741c1.597-0.188,2.395-1.735,4.554-1.83
		c0.667-0.028,4-0.364,6.604-0.634c0.13,0.663,0.429,1.323,0.893,1.911c-2.365-1.763-5.2,0.832-8.971,4.604
		c-4.003,4.004-7.718,12.888-7.718,12.888s8.885-3.715,12.888-7.718c3.771-3.772,6.366-6.607,4.604-8.972
		c0.587,0.464,1.248,0.764,1.911,0.894c-0.27,2.604-0.606,5.938-0.635,6.604c-0.095,2.16-1.644,2.957-1.83,4.554
		c-0.063,0.523-0.283,2.159,0.741,6.03C330.104,311.834,334.366,319.33,334.903,318.004z"/>
	<path fill="#00549E" d="M324.551,264.728c-17.271,0-31.272,14.001-31.272,31.271c0,17.271,14.001,31.273,31.272,31.273
		c17.27,0,31.271-14.002,31.271-31.273C355.821,278.729,341.82,264.728,324.551,264.728z M324.55,322.459
		c-14.613,0-26.459-11.846-26.459-26.459c0-14.613,11.846-26.459,26.459-26.459c14.612,0,26.459,11.846,26.459,26.459
		C351.009,310.613,339.162,322.459,324.55,322.459z"/>
</g>
</svg>
