<?xml version="1.0" encoding="utf-8"?>
<!-- Generator: Adobe Illustrator 15.1.0, SVG Export Plug-In . SVG Version: 6.00 Build 0)  -->
<!DOCTYPE svg PUBLIC "-//W3C//DTD SVG 1.1//EN" "http://www.w3.org/Graphics/SVG/1.1/DTD/svg11.dtd">
<svg version="1.1" id="Logo" xmlns="http://www.w3.org/2000/svg" xmlns:xlink="http://www.w3.org/1999/xlink" x="0px" y="0px"
	 width="792px" height="612px" viewBox="0 0 792 612" enable-background="new 0 0 792 612" xml:space="preserve">
<linearGradient id="SVGID_1_" gradientUnits="userSpaceOnUse" x1="320.4814" y1="276.814" x2="282.9815" y2="334.314">
	<stop  offset="0" style="stop-color:#999999;stop-opacity:0.2"/>
	<stop  offset="1" style="stop-color:#999999;stop-opacity:0.3"/>
</linearGradient>
<circle fill="url(#SVGID_1_)" cx="301.446" cy="306" r="36.579"/>
<image overflow="visible" width="300" height="107" xlink:href="resources/300px-Owasp_logo_1c.jpg"  transform="matrix(1.5367 0 0 1.5367 -3197.4658 -329.9775)">
</image>
<text transform="matrix(1 0 0 1 -3150.5815 -22.0957)" fill="#FF00FF" font-family="'HouseGothicHG23Text-Light'" font-size="88">OWASP</text>
<text transform="matrix(1 0 0 1 -3147.1479 0)" fill="#FF00FF" font-family="'HouseGothicHG23Text-Light'" font-size="24">Las Vegas</text>
<g>
	<path d="M365.262,322.663c-12.088,0-13.488-3.735-13.488-9.338v-16.704c0-5.55,1.4-9.337,13.488-9.337
		c12.137,0,13.537,3.787,13.537,9.337v16.704C378.799,318.928,377.398,322.663,365.262,322.663z M374.65,297.088
		c0-4.253-0.727-6.535-9.389-6.535c-8.611,0-9.34,2.282-9.34,6.535v15.771c0,4.254,0.729,6.536,9.34,6.536
		c8.662,0,9.389-2.282,9.389-6.536V297.088z"/>
	<path d="M409.252,287.699v25.107c0,4.254,0.83,6.535,7.055,6.535c6.328,0,7.055-2.281,7.055-6.535v-25.107h4.15v25.626
		c0,5.603-1.453,9.338-11.205,9.338c-5.551,0-8.039-2.283-9.131-4.047c-1.088,1.764-3.58,4.047-9.129,4.047
		c-9.754,0-11.207-3.735-11.207-9.338v-25.626h4.15v25.107c0,4.254,0.729,6.535,7.057,6.535c6.225,0,7.055-2.281,7.055-6.535
		v-25.107H409.252z"/>
	<path d="M462.477,322.299h-4.15v-12.813h-18.469v12.813h-4.15v-25.678c0-5.55,1.299-9.337,13.385-9.337
		c12.088,0,13.385,3.787,13.385,9.337V322.299z M458.326,297.088c0-4.253-0.572-6.535-9.234-6.535s-9.234,2.282-9.234,6.535v8.767
		h18.469V297.088z"/>
	<path d="M483.695,322.715c-12.088,0-13.385-3.787-13.385-9.338v-2.749h4.15v2.282c0,4.254,0.57,6.535,9.234,6.535
		c8.662,0,9.232-2.281,9.232-6.535v-0.519c0-3.164-1.557-4.409-4.721-4.928l-10.791-1.713c-4.928-0.778-7.105-3.528-7.105-7.366
		v-1.712c0-5.602,1.297-9.337,13.385-9.337c12.086,0,13.383,3.735,13.383,9.337v1.193h-4.15v-0.726c0-4.254-0.57-6.537-9.232-6.537
		c-8.664,0-9.234,2.283-9.234,6.537v0.829c0,2.282,0.828,3.684,3.891,4.202l11.514,1.867c4.721,0.778,7.213,3.165,7.213,7.471v1.867
		C497.078,318.928,495.781,322.715,483.695,322.715z"/>
	<path d="M520.836,312.339H509.32v9.96h-4.148v-34.6h15.664c8.508,0,11.102,3.735,11.102,9.338v5.965
		C531.938,308.553,529.344,312.339,520.836,312.339z M527.789,297.451c0-4.253-1.92-6.483-6.953-6.483H509.32v18.104h11.516
		c5.084,0,6.953-2.282,6.953-6.536V297.451z"/>
</g>
<g>
	<path fill="#00549E" d="M352.963,341.876v-9.438h1.131v8.476h5.08v0.962H352.963z"/>
	<path fill="#00549E" d="M366.035,341.876l-0.156-0.793c-0.664,0.637-1.301,0.878-2.787,0.878c-1.754,0-2.59-0.892-2.59-1.996
		c0-1.146,0.525-2.192,3.199-2.192h2.178v-0.354c0-1.118-0.451-1.613-1.951-1.613c-1.443,0-2.023,0.382-2.023,1.005l-1.061-0.1
		c0-1.146,1.045-1.74,3.084-1.74c2.363,0,3.014,0.877,3.014,2.306v4.6H366.035z M365.879,338.608h-2.178
		c-1.896,0-2.137,0.776-2.137,1.329c0,0.523,0.438,1.118,1.697,1.118c1.754,0,2.617-0.553,2.617-1.57V338.608z"/>
	<path fill="#00549E" d="M371.906,341.961c-2.42,0-3.113-0.793-3.113-2.053v-0.069h1.063v0.027c0,0.963,0.666,1.26,2.051,1.26
		c1.939,0,2.051-0.778,2.051-1.09c0-0.537-0.197-0.792-0.777-0.891l-2.787-0.511c-1.09-0.197-1.6-0.748-1.6-1.612
		c0-0.863,0.242-2.052,3.07-2.052c2.379,0,3.043,0.777,3.043,2.037v0.071h-1.061v-0.015c0-0.947-0.623-1.259-1.982-1.259
		c-1.781,0-2.008,0.679-2.008,1.09c0,0.495,0.154,0.749,0.723,0.849l2.799,0.481c1.219,0.212,1.643,0.904,1.643,1.598
		C375.02,340.786,374.779,341.961,371.906,341.961z"/>
	<path fill="#00549E" d="M384.754,341.876h-1.076l-3.467-9.438h1.145l2.859,7.823l2.873-7.823h1.146L384.754,341.876z"/>
	<path fill="#00549E" d="M391.785,341.961c-2.803,0-3.17-1.004-3.17-2.292v-2.393c0-1.287,0.367-2.306,3.17-2.306
		c2.787,0,3.154,1.019,3.154,2.306v1.458h-5.264v0.792c0,0.949,0.172,1.6,2.109,1.6c1.854,0,2.08-0.637,2.094-1.386h1.061
		C394.939,340.929,394.586,341.961,391.785,341.961z M391.785,335.806c-1.938,0-2.109,0.665-2.109,1.613v0.468h4.203v-0.468
		C393.879,336.471,393.723,335.806,391.785,335.806z"/>
	<path fill="#00549E" d="M396.723,337.348c0-1.344,0.396-2.377,2.9-2.377c1.217,0,1.895,0.354,2.221,0.863l0.156-0.778h0.904v7.599
		c0,1.302-0.381,2.235-3.041,2.235c-2.688,0-3.07-0.962-3.07-2.081h1.061c0.014,0.709,0.256,1.247,2.01,1.247
		c1.883,0,1.98-0.581,1.98-1.516v-1.443c-0.396,0.554-1.047,0.864-2.221,0.864c-2.504,0-2.9-1.032-2.9-2.377V337.348z
		 M397.783,339.385c0,1.104,0.199,1.671,2.037,1.671c1.84,0,2.023-0.566,2.023-1.671v-1.839c0-1.104-0.184-1.67-2.023-1.67
		c-1.838,0-2.037,0.566-2.037,1.67V339.385z"/>
	<path fill="#00549E" d="M410.361,341.876l-0.156-0.793c-0.664,0.637-1.301,0.878-2.787,0.878c-1.754,0-2.588-0.892-2.588-1.996
		c0-1.146,0.523-2.192,3.197-2.192h2.178v-0.354c0-1.118-0.453-1.613-1.953-1.613c-1.441,0-2.021,0.382-2.021,1.005l-1.063-0.1
		c0-1.146,1.049-1.74,3.084-1.74c2.365,0,3.016,0.877,3.016,2.306v4.6H410.361z M410.205,338.608h-2.178
		c-1.896,0-2.137,0.776-2.137,1.329c0,0.523,0.438,1.118,1.697,1.118c1.756,0,2.617-0.553,2.617-1.57V338.608z"/>
	<path fill="#00549E" d="M416.232,341.961c-2.42,0-3.113-0.793-3.113-2.053v-0.069h1.063v0.027c0,0.963,0.664,1.26,2.051,1.26
		c1.939,0,2.051-0.778,2.051-1.09c0-0.537-0.197-0.792-0.775-0.891l-2.789-0.511c-1.09-0.197-1.6-0.748-1.6-1.612
		c0-0.863,0.24-2.052,3.07-2.052c2.377,0,3.043,0.777,3.043,2.037v0.071h-1.061v-0.015c0-0.947-0.625-1.259-1.982-1.259
		c-1.781,0-2.008,0.679-2.008,1.09c0,0.495,0.156,0.749,0.721,0.849l2.801,0.481c1.217,0.212,1.641,0.904,1.641,1.598
		C419.344,340.786,419.104,341.961,416.232,341.961z"/>
	<path fill="#00549E" d="M428.781,341.975c-3.297,0-3.65-1.018-3.65-2.547v-4.556c0-1.514,0.354-2.547,3.65-2.547
		s3.65,1.033,3.65,2.547v0.565h-1.131v-0.438c0-1.161-0.156-1.783-2.52-1.783c-2.361,0-2.518,0.622-2.518,1.783v4.302
		c0,1.175,0.156,1.782,2.518,1.782c2.363,0,2.52-0.607,2.52-1.782v-0.708h1.131v0.835
		C432.432,340.957,432.078,341.975,428.781,341.975z"/>
	<path fill="#00549E" d="M439.605,341.876v-4.33c0-1.104-0.184-1.67-2.023-1.67c-1.484,0-2.01,0.51-2.01,1.727v4.273h-1.061v-9.438
		h1.061v3.409c0.326-0.522,0.992-0.877,2.207-0.877c2.506,0,2.887,1.033,2.887,2.377v4.528H439.605z"/>
	<path fill="#00549E" d="M448.051,341.876l-0.154-0.793c-0.666,0.637-1.303,0.878-2.787,0.878c-1.756,0-2.59-0.892-2.59-1.996
		c0-1.146,0.523-2.192,3.197-2.192h2.18v-0.354c0-1.118-0.453-1.613-1.953-1.613c-1.445,0-2.023,0.382-2.023,1.005l-1.061-0.1
		c0-1.146,1.047-1.74,3.084-1.74c2.363,0,3.012,0.877,3.012,2.306v4.6H448.051z M447.896,338.608h-2.18
		c-1.896,0-2.137,0.776-2.137,1.329c0,0.523,0.439,1.118,1.697,1.118c1.756,0,2.619-0.553,2.619-1.57V338.608z"/>
	<path fill="#00549E" d="M457.135,339.584c0,1.345-0.396,2.377-2.9,2.377c-1.217,0-1.91-0.354-2.221-0.878v3.623h-1.063v-9.65h0.904
		l0.158,0.792c0.24-0.424,0.877-0.877,2.221-0.877c2.504,0,2.9,1.033,2.9,2.377V339.584z M454.051,335.876
		c-1.838,0-2.037,0.566-2.037,1.67v1.839c0,1.104,0.199,1.671,2.037,1.671c1.84,0,2.023-0.566,2.023-1.671v-1.839
		C456.074,336.442,455.891,335.876,454.051,335.876z"/>
	<path fill="#00549E" d="M463.262,341.733c-0.369,0.114-1.049,0.228-1.586,0.228c-1.23,0-2.277-0.467-2.277-1.882v-4.175h-0.906
		v-0.849h0.906v-1.656h1.061v1.656h2.787v0.849h-2.787v4.118c0,0.792,0.539,1.089,1.346,1.089c0.551,0,1.045-0.098,1.457-0.197
		V341.733z"/>
	<path fill="#00549E" d="M468.1,341.961c-2.803,0-3.17-1.004-3.17-2.292v-2.393c0-1.287,0.367-2.306,3.17-2.306
		c2.789,0,3.154,1.019,3.154,2.306v1.458h-5.264v0.792c0,0.949,0.17,1.6,2.109,1.6c1.854,0,2.08-0.637,2.094-1.386h1.061
		C471.254,340.929,470.902,341.961,468.1,341.961z M468.1,335.806c-1.939,0-2.109,0.665-2.109,1.613v0.468h4.203v-0.468
		C470.193,336.471,470.037,335.806,468.1,335.806z"/>
	<path fill="#00549E" d="M476.234,335.834c-1.457,0-1.994,0.495-1.994,1.712v4.33h-1.063v-6.82h0.906l0.141,0.792
		c0.313-0.522,1.006-0.877,2.193-0.877c0.566,0,1.006,0.071,1.33,0.198v0.905C477.295,335.904,476.801,335.834,476.234,335.834z"/>
</g>
<path fill="#00549E" d="M315.148,335.119c0.709-1.756,0.969-11.042-0.186-19.901c-0.707-5.416-1.6-10.382-2.264-13.767
	c0.184-0.054,0.359-0.119,0.531-0.198l1.658,3.46c0,0,3.172,2.763,3.389,2.467c0.221-0.296-2.502-2.678-2.801-2.899
	c-0.057-0.164-0.367-1.101-0.697-2.086l0.857,0.979c0,0,4.961,1.339,5.076,0.99c0.117-0.349-4.307-1.595-4.621-1.701
	c-0.207-0.239-0.521-1.046-1.104-2.055l2.727,1.062c0,0,4.57-0.488,4.498-0.85c-0.072-0.36-3.75,0.072-4.211,0.164
	c-0.199-0.132-1.449-0.944-2.699-1.76c0.404-1.078,0.371-2.333-0.084-3.521c1.73,0.813,3.535,0.751,4.611-0.326
	c0.342-0.341,0.582-0.756,0.723-1.217c0.314-0.057,0.611-0.202,0.852-0.442c0.639-0.639,0.621-1.69-0.041-2.351
	c-0.322-0.324-0.74-0.492-1.156-0.507c1.072-0.521,2.52-1.135,2.99-1.091c1.059,0.1,2.938,1.33,2.957,1.342
	c0.121,0.081,0.285,0.046,0.363-0.075c0.08-0.122,0.047-0.285-0.074-0.364c-0.082-0.054-2.006-1.314-3.197-1.427
	c-0.684-0.063-2.402,0.719-3.279,1.146c-0.328-0.599-0.762-1.184-1.295-1.717c-0.533-0.532-1.117-0.967-1.717-1.294
	c0.428-0.878,1.211-2.596,1.146-3.278c-0.111-1.192-1.373-3.117-1.426-3.199c-0.08-0.121-0.242-0.155-0.365-0.074
	c-0.121,0.08-0.154,0.242-0.076,0.364c0.014,0.02,1.242,1.896,1.342,2.958c0.045,0.469-0.57,1.916-1.09,2.989
	c-0.014-0.417-0.182-0.833-0.506-1.157c-0.66-0.661-1.713-0.68-2.352-0.04c-0.238,0.239-0.387,0.537-0.441,0.852
	c-0.461,0.142-0.875,0.381-1.217,0.723c-1.078,1.076-1.139,2.88-0.326,4.61c-1.189-0.454-2.443-0.489-3.521-0.084
	c-0.814-1.25-1.629-2.498-1.76-2.698c0.094-0.46,0.523-4.139,0.164-4.211c-0.361-0.072-0.85,4.497-0.85,4.497l1.063,2.728
	c-1.01-0.581-1.816-0.896-2.055-1.104c-0.107-0.315-1.354-4.737-1.701-4.622c-0.35,0.117,0.99,5.078,0.99,5.078l0.979,0.855
	c-0.986-0.329-1.924-0.642-2.086-0.695c-0.223-0.3-2.605-3.021-2.9-2.803s2.469,3.39,2.469,3.39l3.457,1.659
	c-0.078,0.171-0.143,0.349-0.197,0.528c-3.385-0.662-8.352-1.555-13.766-2.261c-8.861-1.154-18.146-0.896-19.9-0.186
	s8.164,6.351,10.824,7.055c5.123,1.354,7.289,1.065,7.98,0.983c2.111-0.249,3.168-2.299,6.025-2.423
	c0.883-0.039,5.295-0.483,8.74-0.839c0.172,0.877,0.568,1.751,1.182,2.528c-3.131-2.333-6.881,1.102-11.873,6.093
	c-5.295,5.297-10.213,17.055-10.213,17.055s11.758-4.917,17.055-10.214c4.992-4.99,8.428-8.742,6.092-11.872
	c0.779,0.614,1.652,1.011,2.529,1.183c-0.355,3.445-0.801,7.857-0.838,8.738c-0.125,2.857-2.176,3.914-2.424,6.027
	c-0.082,0.692-0.373,2.857,0.982,7.979C308.797,326.955,314.438,336.872,315.148,335.119z"/>
<path fill="#00549E" d="M301.447,264.616c-22.855,0-41.385,18.529-41.385,41.384c0,22.855,18.529,41.384,41.385,41.384
	S342.83,328.855,342.83,306C342.83,283.146,324.303,264.616,301.447,264.616z M301.447,341.015
	c-19.338,0-35.016-15.677-35.016-35.015c0-19.339,15.678-35.015,35.016-35.015c19.336,0,35.014,15.676,35.014,35.015
	C336.461,325.338,320.783,341.015,301.447,341.015z"/>
</svg>
